External Loads File
version=1
nRows=93
nColumns=13
Range=5.000000e-03-10 seconds
endheader
time 	forceRightX 	forceRightY 	forceRightZ 	pointRightX 	pointRightY 	pointRightZ 	forceLeftX 	forceLeftY 	forceLeftZ 	pointLeftX 	pointLeftY 	pointLeftZ 		
2.505000 56.235200 755.760041 -0.000000 0.455883 0.216924 -0.188622 -1.035705 -68.808542 -0.000000 0.210409 0.438348 -0.442594
2.510000 57.910454 749.454912 -0.000000 0.453965 0.214780 -0.188665 -3.107264 -67.828102 -0.000000 0.211928 0.440803 -0.442326
2.515000 59.399768 742.924801 -0.000000 0.452073 0.212723 -0.188653 -4.914726 -66.660219 -0.000000 0.213512 0.443246 -0.441982
2.520000 60.838605 736.205926 -0.000000 0.450099 0.210643 -0.188640 -6.419010 -65.426884 -0.000000 0.215196 0.445526 -0.441707
2.525000 62.380826 729.297844 -0.000000 0.447920 0.208586 -0.188531 -7.651616 -64.196615 -0.000000 0.216941 0.447967 -0.441662
2.530000 63.088972 722.290898 -0.000000 0.445748 0.206666 -0.188485 -8.581014 -63.023545 -0.000000 0.218703 0.450193 -0.441598
2.535000 64.496892 715.093712 -0.000000 0.443490 0.204614 -0.188424 -9.406672 -61.908204 -0.000000 0.220505 0.452845 -0.441560
2.540000 65.095195 707.915811 -0.000000 0.441230 0.202653 -0.188421 -10.068910 -60.860680 -0.000000 0.222400 0.454991 -0.441642
2.545000 65.681353 700.774638 -0.000000 0.438854 0.200747 -0.188335 -10.717501 -59.827100 -0.000000 0.224295 0.457287 -0.441631
2.550000 65.077813 693.874444 -0.000000 0.436462 0.198886 -0.188307 -11.353333 -58.726103 -0.000000 0.226240 0.458728 -0.441602
2.555000 65.755778 687.082152 -0.000000 0.433875 0.197054 -0.187844 -12.294902 -57.383953 -0.000000 0.228537 0.460723 -0.442357
2.560000 65.761529 680.661702 -0.000000 0.431475 0.195234 -0.187950 -13.459048 -55.719617 -0.000000 0.230377 0.462827 -0.441912
2.565000 67.440231 674.396387 -0.000000 0.428948 0.193421 -0.188005 -15.063279 -53.624181 -0.000000 0.232391 0.466091 -0.441604
2.570000 67.035438 668.573732 -0.000000 0.426364 0.191630 -0.187972 -16.773927 -51.168162 -0.000000 0.234557 0.467326 -0.441632
2.575000 67.624468 662.737287 -0.000000 0.423783 0.189966 -0.187865 -18.757691 -48.325945 -0.000000 0.236728 0.469435 -0.441636
2.580000 68.383907 656.797313 -0.000000 0.421073 0.188243 -0.187808 -20.839792 -45.223623 -0.000000 0.238945 0.471246 -0.441590
2.585000 69.578215 650.565594 -0.000000 0.418310 0.186652 -0.187758 -22.925804 -41.997778 -0.000000 0.241209 0.473232 -0.441588
2.590000 71.016217 643.927396 -0.000000 0.415559 0.184957 -0.187770 -24.916491 -38.768634 -0.000000 0.243528 0.475080 -0.441582
2.595000 72.610660 636.795915 -0.000000 0.412716 0.183413 -0.187764 -26.767929 -35.579174 -0.000000 0.245885 0.476836 -0.441593
2.600000 74.122553 629.140825 -0.000000 0.409883 0.181940 -0.187794 -28.481095 -32.403201 -0.000000 0.248252 0.478501 -0.441613
2.605000 75.825937 620.897532 -0.000000 0.406973 0.180489 -0.187861 -30.114903 -29.147049 -0.000000 0.250655 0.480223 -0.441650
2.610000 77.327954 612.084997 -0.000000 0.404073 0.179030 -0.187845 -31.699586 -25.726073 -0.000000 0.253073 0.481833 -0.441745
2.615000 78.694106 602.657278 -0.000000 0.401027 0.177738 -0.187822 -33.284327 -22.019573 -0.000000 0.255513 0.483412 -0.441786
2.620000 80.291086 592.525185 -0.000000 0.397865 0.176477 -0.187855 -34.909874 -17.896748 -0.000000 0.258369 0.484988 -0.441797
2.625000 81.301482 581.784931 -0.000000 0.394829 0.175168 -0.187792 -36.565092 -13.318556 -0.000000 0.260925 0.486423 -0.441945
2.630000 81.780504 570.469873 -0.000000 0.391736 0.173987 -0.187744 -38.268662 -8.226765 -0.000000 0.263399 0.487854 -0.441984
2.635000 81.954087 558.621848 -0.000000 0.388604 0.172832 -0.187803 -40.023030 -2.597240 -0.000000 0.265843 0.489272 -0.442014
2.640000 81.898521 546.277812 -0.000000 0.385385 0.171705 -0.187797 -41.803193 3.538195 -0.000000 0.268255 0.490576 -0.442014
2.645000 81.021981 533.529397 -0.000000 0.382265 0.170736 -0.187596 -43.579742 10.055544 -0.000000 0.270325 0.491795 -0.442319
2.650000 80.966012 520.133675 -0.000000 0.378876 0.169744 -0.187639 -45.278665 16.977014 -0.000000 0.272976 0.493329 -0.442218
2.655000 80.236494 506.356663 -0.000000 0.375511 0.168834 -0.187610 -46.889568 24.050239 -0.000000 0.275425 0.494165 -0.442268
2.660000 79.484704 492.149006 -0.000000 0.372227 0.167954 -0.187576 -48.370942 31.197347 -0.000000 0.277878 0.495266 -0.442253
2.665000 78.955215 477.542479 -0.000000 0.368751 0.167133 -0.187509 -49.700174 38.337365 -0.000000 0.280391 0.496255 -0.442315
2.670000 78.346439 462.688944 -0.000000 0.365394 0.166409 -0.187443 -50.927666 45.398210 -0.000000 0.282911 0.497181 -0.442395
2.675000 77.837662 447.646831 -0.000000 0.361877 0.165737 -0.187340 -52.103951 52.446823 -0.000000 0.285335 0.498028 -0.442470
2.680000 77.531519 432.411567 -0.000000 0.358304 0.165108 -0.187270 -53.297896 59.638595 -0.000000 0.287813 0.498790 -0.442477
2.685000 77.408811 416.910860 -0.000000 0.354735 0.164540 -0.187110 -54.589606 67.166876 -0.000000 0.290407 0.499490 -0.442699
2.690000 77.310051 401.055159 -0.000000 0.351108 0.164035 -0.186931 -56.069924 75.197624 -0.000000 0.292950 0.500116 -0.442729
2.695000 77.115680 384.768917 -0.000000 0.347364 0.163619 -0.187153 -57.809671 83.859953 -0.000000 0.295187 0.500699 -0.442975
2.700000 76.779463 368.017412 -0.000000 0.343831 0.163156 -0.186924 -59.841911 93.244581 -0.000000 0.297712 0.501222 -0.442966
2.705000 76.397636 350.801156 -0.000000 0.340135 0.162822 -0.186855 -62.135430 103.415388 -0.000000 0.300245 0.501690 -0.443064
2.710000 75.974425 333.211231 -0.000000 0.336352 0.162494 -0.186762 -64.650331 114.354140 -0.000000 0.302886 0.502062 -0.442863
2.715000 75.162897 315.490715 -0.000000 0.332743 0.162287 -0.186527 -67.471853 125.875025 -0.000000 0.305348 0.502304 -0.442941
2.720000 74.383902 297.729111 -0.000000 0.329054 0.162061 -0.186345 -70.426311 137.867946 -0.000000 0.307781 0.502503 -0.442970
2.725000 73.562197 280.081516 -0.000000 0.325389 0.161954 -0.186207 -73.517060 150.123345 -0.000000 0.310145 0.502659 -0.443072
2.730000 72.896139 262.542747 -0.000000 0.321612 0.161889 -0.186113 -76.595669 162.564975 -0.000000 0.312531 0.502741 -0.443127
2.735000 72.179446 245.116201 -0.000000 0.317880 0.161786 -0.185927 -79.699206 175.076948 -0.000000 0.314898 0.502736 -0.443240
2.740000 71.417030 227.670270 -0.000000 0.314087 0.161859 -0.185725 -82.727645 187.641065 -0.000000 0.317253 0.502524 -0.443316
2.745000 70.468107 210.099432 -0.000000 0.310282 0.161922 -0.185664 -85.696079 200.228848 -0.000000 0.319545 0.502374 -0.443394
2.750000 69.288709 192.364383 -0.000000 0.306518 0.162101 -0.185513 -88.605327 212.846488 -0.000000 0.321811 0.501987 -0.443577
2.755000 67.885291 174.553812 -0.000000 0.302780 0.162353 -0.185485 -91.456717 225.491390 -0.000000 0.324099 0.501559 -0.443657
2.760000 66.334577 156.788032 -0.000000 0.298938 0.162653 -0.185493 -94.156004 238.173615 -0.000000 0.326405 0.501071 -0.443868
2.765000 64.463754 139.271969 -0.000000 0.295258 0.163055 -0.185365 -96.994283 250.716538 -0.000000 0.328712 0.500484 -0.444113
2.770000 62.442482 122.089508 -0.000000 0.291372 0.163580 -0.185261 -99.838477 263.093271 -0.000000 0.331049 0.499768 -0.444036
2.775000 60.268165 105.469743 -0.000000 0.287578 0.164005 -0.185197 -102.924069 275.134854 -0.000000 0.333318 0.499103 -0.444133
2.780000 58.091747 89.581637 -0.000000 0.283812 0.164709 -0.185072 -106.132780 286.805022 -0.000000 0.335727 0.498328 -0.444229
2.785000 55.918406 74.630712 -0.000000 0.280076 0.165493 -0.184940 -109.626322 297.968433 -0.000000 0.338154 0.497407 -0.444368
2.790000 53.794405 60.747675 -0.000000 0.276486 0.166193 -0.184957 -113.482455 308.559002 -0.000000 0.340566 0.496422 -0.444582
2.795000 51.797057 47.985473 -0.000000 0.272823 0.167088 -0.184833 -117.663495 318.606344 -0.000000 0.342951 0.495354 -0.444692
2.800000 49.997127 36.371227 -0.000000 0.269120 0.168007 -0.184811 -122.133090 328.161573 -0.000000 0.345380 0.494181 -0.444816
2.805000 48.453363 25.938152 -0.000000 0.265384 0.169059 -0.184793 -126.874167 337.233772 -0.000000 0.347826 0.492973 -0.445001
2.810000 47.200491 16.723814 -0.000000 0.261794 0.170201 -0.184653 -131.941295 345.751705 -0.000000 0.350350 0.491708 -0.445166
2.815000 46.274241 8.715031 -0.000000 0.258285 0.171337 -0.184578 -137.288373 353.667670 -0.000000 0.352856 0.490328 -0.445371
2.820000 45.725921 1.797580 -0.000000 0.254675 0.172501 -0.184678 -142.575508 361.111221 -0.000000 0.355496 0.488901 -0.445282
2.825000 45.602853 -4.151363 -0.000000 0.251182 0.173789 -0.184494 -148.008895 368.120552 -0.000000 0.358126 0.487415 -0.445340
2.830000 45.941658 -9.359081 -0.000000 0.247692 0.175222 -0.184424 -153.535174 374.926341 -0.000000 0.360687 0.485865 -0.445588
2.835000 46.735122 -14.092739 -0.000000 0.244183 0.176643 -0.184477 -158.936667 381.838538 -0.000000 0.363398 0.484291 -0.445657
2.840000 47.954881 -18.533277 -0.000000 0.240780 0.178256 -0.184436 -164.344813 388.988874 -0.000000 0.366054 0.482454 -0.445822
2.845000 49.524806 -22.842262 -0.000000 0.237356 0.179867 -0.184429 -169.523761 396.636744 -0.000000 0.368777 0.480674 -0.445902
2.850000 51.335126 -27.104213 -0.000000 0.233833 0.181509 -0.184439 -174.490347 404.925563 -0.000000 0.371463 0.478816 -0.445748
2.855000 53.245211 -31.377121 -0.000000 0.230527 0.183379 -0.184409 -179.149148 414.023404 -0.000000 0.374150 0.476872 -0.445768
2.860000 55.123330 -35.645458 -0.000000 0.227265 0.185353 -0.184412 -183.554284 424.002400 -0.000000 0.376816 0.474888 -0.445889
2.865000 56.819443 -39.871561 -0.000000 0.223981 0.187438 -0.184322 -187.530202 435.005141 -0.000000 0.379424 0.472740 -0.445998
2.870000 58.240749 -43.925989 -0.000000 0.220728 0.189403 -0.184299 -191.465116 446.884739 -0.000000 0.381984 0.470610 -0.446097
2.875000 59.244049 -47.808684 -0.000000 0.217497 0.191593 -0.184346 -194.915636 459.785050 -0.000000 0.384537 0.468340 -0.446176
2.880000 59.787708 -51.478036 -0.000000 0.214479 0.193875 -0.184292 -198.074188 473.501344 -0.000000 0.387157 0.465967 -0.446297
2.885000 59.910839 -54.915016 -0.000000 0.211367 0.196066 -0.184192 -201.375582 487.664641 -0.000000 0.389600 0.463526 -0.446291
2.890000 59.598437 -58.265706 -0.000000 0.208232 0.198435 -0.184048 -204.371050 502.234128 -0.000000 0.391987 0.460977 -0.446326
2.895000 58.900865 -61.654971 -0.000000 0.205096 0.200940 -0.183900 -206.983787 516.986126 -0.000000 0.394459 0.458413 -0.446340
2.900000 57.975285 -65.112985 -0.000000 0.202133 0.203363 -0.183803 -209.790797 531.425871 -0.000000 0.396850 0.455654 -0.446470
2.905000 56.891686 -68.733900 -0.000000 0.199266 0.205999 -0.183542 -212.364201 545.484264 -0.000000 0.399223 0.452836 -0.446568
2.910000 55.842585 -72.473916 -0.000000 0.196269 0.208572 -0.183261 -215.183874 558.795029 -0.000000 0.401439 0.450099 -0.446678
2.915000 54.824702 -76.403470 -0.000000 0.193519 0.211312 -0.182824 -217.411108 571.592909 -0.000000 0.403850 0.447223 -0.446804
2.920000 53.966538 -80.421573 -0.000000 0.190821 0.214002 -0.182448 -219.675622 583.628921 -0.000000 0.406229 0.444211 -0.446921
2.925000 53.178703 -84.512394 -0.000000 0.188044 0.216891 -0.182113 -221.469540 595.126565 -0.000000 0.408564 0.441144 -0.447018
2.930000 52.432976 -88.569322 -0.000000 0.185577 0.219759 -0.181565 -223.080858 606.018841 -0.000000 0.411076 0.438050 -0.446891
2.935000 51.612994 -92.525733 -0.000000 0.182911 0.222872 -0.181367 -224.256270 616.452228 -0.000000 0.413417 0.434854 -0.447018
2.940000 50.747956 -96.237286 -0.000000 0.180430 0.225864 -0.181214 -225.641836 626.270234 -0.000000 0.415735 0.431615 -0.447084
2.945000 49.672335 -99.694512 -0.000000 0.177878 0.229058 -0.180974 -226.456973 635.876893 -0.000000 0.418005 0.428333 -0.447202
2.950000 48.409318 -102.828896 -0.000000 0.175437 0.232277 -0.180871 -227.016854 645.306545 -0.000000 0.420254 0.424946 -0.447325
2.955000 46.930035 -105.634407 -0.000000 0.172982 0.235535 -0.180836 -227.140210 654.756076 -0.000000 0.422529 0.421482 -0.447451
2.960000 45.249779 -108.092930 -0.000000 0.170694 0.239002 -0.180995 -226.784685 664.322630 -0.000000 0.424788 0.417939 -0.447352
2.965000 43.477972 -110.145372 -0.000000 0.168338 0.242439 -0.181040 -226.400409 673.878515 -0.000000 0.426934 0.414372 -0.447311
